<svg width="19" height="21" viewBox="0 0 19 21" fill="none" xmlns="http://www.w3.org/2000/svg">
<path d="M17.167 2.33203H14.167V0.832031H12.667V2.33203H6.66699V0.832031H5.16699V2.33203H2.16699C1.34199 2.33203 0.666992 3.00703 0.666992 3.83203V18.832C0.666992 19.657 1.34199 20.332 2.16699 20.332H17.167C17.992 20.332 18.667 19.657 18.667 18.832V3.83203C18.667 3.00703 17.992 2.33203 17.167 2.33203ZM17.167 18.832H2.16699V8.33203H17.167V18.832ZM17.167 6.83203H2.16699V3.83203H5.16699V5.33203H6.66699V3.83203H12.667V5.33203H14.167V3.83203H17.167V6.83203Z" fill="#637381"/>
</svg>
