<svg width="67" height="28" viewBox="0 0 67 28" fill="none" xmlns="http://www.w3.org/2000/svg">
<rect y="13" width="12" height="2" rx="1" fill="#FA541C"/>
<path d="M25.53 21C25.47 21 25.416 20.982 25.368 20.946C25.332 20.898 25.314 20.844 25.314 20.784V8.616C25.314 8.556 25.332 8.508 25.368 8.472C25.416 8.424 25.47 8.4 25.53 8.4H29.922C30.774 8.4 31.524 8.55 32.172 8.85C32.82 9.15 33.318 9.582 33.666 10.146C34.026 10.698 34.206 11.346 34.206 12.09V17.31C34.206 18.054 34.026 18.708 33.666 19.272C33.318 19.824 32.82 20.25 32.172 20.55C31.524 20.85 30.774 21 29.922 21H25.53ZM27.402 19.11C27.402 19.17 27.432 19.2 27.492 19.2H30.012C30.648 19.2 31.152 19.002 31.524 18.606C31.908 18.198 32.106 17.658 32.118 16.986V12.432C32.118 11.748 31.926 11.208 31.542 10.812C31.158 10.404 30.642 10.2 29.994 10.2H27.492C27.432 10.2 27.402 10.23 27.402 10.29V19.11ZM39.6826 11.658C40.4386 11.658 41.1046 11.79 41.6806 12.054C42.2566 12.318 42.7006 12.684 43.0126 13.152C43.3246 13.608 43.4806 14.13 43.4806 14.718V20.784C43.4806 20.844 43.4566 20.898 43.4086 20.946C43.3726 20.982 43.3246 21 43.2646 21H41.6086C41.5486 21 41.4946 20.982 41.4466 20.946C41.4106 20.898 41.3926 20.844 41.3926 20.784V20.208C41.3926 20.172 41.3806 20.154 41.3566 20.154C41.3326 20.142 41.3086 20.148 41.2846 20.172C40.6966 20.82 39.8446 21.144 38.7286 21.144C37.8286 21.144 37.0846 20.916 36.4966 20.46C35.9206 20.004 35.6326 19.326 35.6326 18.426C35.6326 17.49 35.9566 16.764 36.6046 16.248C37.2646 15.72 38.1886 15.456 39.3766 15.456H41.3026C41.3626 15.456 41.3926 15.426 41.3926 15.366V14.934C41.3926 14.466 41.2546 14.106 40.9786 13.854C40.7026 13.59 40.2886 13.458 39.7366 13.458C39.2806 13.458 38.9086 13.542 38.6206 13.71C38.3446 13.866 38.1706 14.088 38.0986 14.376C38.0626 14.52 37.9786 14.58 37.8466 14.556L36.1006 14.34C36.0406 14.328 35.9866 14.31 35.9386 14.286C35.9026 14.25 35.8906 14.208 35.9026 14.16C35.9986 13.428 36.3886 12.828 37.0726 12.36C37.7686 11.892 38.6386 11.658 39.6826 11.658ZM39.2506 19.488C39.8386 19.488 40.3426 19.332 40.7626 19.02C41.1826 18.708 41.3926 18.312 41.3926 17.832V16.986C41.3926 16.926 41.3626 16.896 41.3026 16.896H39.7906C39.1546 16.896 38.6506 17.016 38.2786 17.256C37.9186 17.496 37.7386 17.838 37.7386 18.282C37.7386 18.666 37.8766 18.966 38.1526 19.182C38.4406 19.386 38.8066 19.488 39.2506 19.488ZM45.2036 24.582C45.1676 24.582 45.1376 24.558 45.1136 24.51C45.0896 24.474 45.0776 24.426 45.0776 24.366V23.07C45.0776 23.01 45.0956 22.956 45.1316 22.908C45.1796 22.872 45.2336 22.854 45.2936 22.854H45.3116C45.8036 22.842 46.1876 22.788 46.4636 22.692C46.7396 22.608 46.9676 22.44 47.1476 22.188C47.3276 21.936 47.4896 21.558 47.6336 21.054C47.6456 21.03 47.6456 20.994 47.6336 20.946L44.6636 12.036C44.6516 12.012 44.6456 11.982 44.6456 11.946C44.6456 11.838 44.7056 11.784 44.8256 11.784H46.5896C46.7216 11.784 46.8056 11.844 46.8416 11.964L48.6416 18.3C48.6536 18.336 48.6716 18.354 48.6956 18.354C48.7196 18.354 48.7376 18.336 48.7496 18.3L50.5496 11.964C50.5856 11.844 50.6696 11.784 50.8016 11.784H52.5116C52.5836 11.784 52.6316 11.808 52.6556 11.856C52.6916 11.892 52.6976 11.952 52.6736 12.036L49.5056 21.504C49.2056 22.356 48.9116 22.992 48.6236 23.412C48.3356 23.832 47.9396 24.132 47.4356 24.312C46.9436 24.492 46.2416 24.582 45.3296 24.582H45.2036ZM64.9577 15.006C65.1977 15.582 65.3177 16.242 65.3177 16.986C65.3177 17.658 65.2157 18.252 65.0117 18.768C64.7357 19.524 64.2797 20.112 63.6437 20.532C63.0077 20.94 62.2397 21.144 61.3397 21.144C60.4517 21.144 59.6777 20.922 59.0177 20.478C58.3697 20.022 57.9077 19.41 57.6317 18.642C57.4877 18.27 57.4037 17.784 57.3797 17.184C57.3797 17.04 57.4517 16.968 57.5957 16.968H59.2697C59.4137 16.968 59.4857 17.04 59.4857 17.184C59.5097 17.568 59.5697 17.874 59.6657 18.102C59.7737 18.486 59.9717 18.792 60.2597 19.02C60.5597 19.236 60.9197 19.344 61.3397 19.344C62.1317 19.344 62.6777 18.984 62.9777 18.264C63.1337 17.916 63.2117 17.466 63.2117 16.914C63.2117 16.302 63.1217 15.798 62.9417 15.402C62.6297 14.73 62.0897 14.394 61.3217 14.394C61.1177 14.394 60.8417 14.514 60.4937 14.754C60.4457 14.778 60.4037 14.79 60.3677 14.79C60.3077 14.79 60.2477 14.754 60.1877 14.682L59.3597 13.53C59.3237 13.47 59.3057 13.422 59.3057 13.386C59.3057 13.326 59.3297 13.272 59.3777 13.224L62.3477 10.308C62.3717 10.284 62.3777 10.26 62.3657 10.236C62.3537 10.212 62.3297 10.2 62.2937 10.2H57.7937C57.7337 10.2 57.6797 10.182 57.6317 10.146C57.5957 10.098 57.5777 10.044 57.5777 9.984V8.616C57.5777 8.556 57.5957 8.508 57.6317 8.472C57.6797 8.424 57.7337 8.4 57.7937 8.4H64.9757C65.0357 8.4 65.0837 8.424 65.1197 8.472C65.1677 8.508 65.1917 8.556 65.1917 8.616V10.182C65.1917 10.29 65.1557 10.38 65.0837 10.452L62.5097 13.044C62.4617 13.092 62.4857 13.128 62.5817 13.152C63.6977 13.308 64.4897 13.926 64.9577 15.006Z" fill="#FA541C"/>
</svg>
