<svg width="19" height="14" viewBox="0 0 19 14" fill="none" xmlns="http://www.w3.org/2000/svg">
<path d="M17.166 0.610107H2.16602C1.8345 0.610107 1.51655 0.741803 1.28213 0.976224C1.04771 1.21064 0.916016 1.52859 0.916016 1.86011V11.8601C0.916016 12.1916 1.04771 12.5096 1.28213 12.744C1.51655 12.9784 1.8345 13.1101 2.16602 13.1101H17.166C17.4975 13.1101 17.8155 12.9784 18.0499 12.744C18.2843 12.5096 18.416 12.1916 18.416 11.8601V1.86011C18.416 1.52859 18.2843 1.21064 18.0499 0.976224C17.8155 0.741803 17.4975 0.610107 17.166 0.610107V0.610107ZM15.791 1.86011L9.66602 6.09761L3.54102 1.86011H15.791ZM2.16602 11.8601V2.42886L9.30977 7.37261C9.41439 7.44519 9.53868 7.48408 9.66602 7.48408C9.79335 7.48408 9.91764 7.44519 10.0223 7.37261L17.166 2.42886V11.8601H2.16602Z" fill="#212B36"/>
</svg>
