<svg width="28" height="28" viewBox="0 0 28 28" fill="none" xmlns="http://www.w3.org/2000/svg">
<path d="M17.75 7.62504C17.75 7.52558 17.7105 7.4302 17.6402 7.35988C17.5698 7.28955 17.4745 7.25004 17.375 7.25004H15.5C14.5558 7.20301 13.6314 7.53158 12.9288 8.16397C12.2261 8.79637 11.8023 9.68116 11.75 10.625V12.65H9.875C9.77554 12.65 9.68016 12.6895 9.60984 12.7599C9.53951 12.8302 9.5 12.9256 9.5 13.025V14.975C9.5 15.0745 9.53951 15.1699 9.60984 15.2402C9.68016 15.3105 9.77554 15.35 9.875 15.35H11.75V20.375C11.75 20.4745 11.7895 20.5699 11.8598 20.6402C11.9302 20.7105 12.0255 20.75 12.125 20.75H14.375C14.4745 20.75 14.5698 20.7105 14.6402 20.6402C14.7105 20.5699 14.75 20.4745 14.75 20.375V15.35H16.715C16.7984 15.3512 16.8798 15.3246 16.9464 15.2743C17.0129 15.2241 17.0608 15.1531 17.0825 15.0725L17.6225 13.1225C17.6374 13.0671 17.6394 13.009 17.6284 12.9527C17.6173 12.8964 17.5935 12.8434 17.5587 12.7978C17.5239 12.7521 17.4791 12.7151 17.4278 12.6895C17.3764 12.6638 17.3199 12.6504 17.2625 12.65H14.75V10.625C14.7687 10.4394 14.8558 10.2674 14.9945 10.1426C15.1332 10.0177 15.3134 9.94911 15.5 9.95004H17.375C17.4745 9.95004 17.5698 9.91053 17.6402 9.8402C17.7105 9.76988 17.75 9.6745 17.75 9.57504V7.62504Z" fill="#FA541C"/>
</svg>
