<svg width="36" height="36" viewBox="0 0 36 36" fill="none" xmlns="http://www.w3.org/2000/svg">
<path d="M22.0315 11.75C22.4866 11.7496 22.9371 11.8401 23.3568 12.0161C23.7764 12.1921 24.1567 12.4501 24.4753 12.775C25.1318 13.4415 25.4998 14.3395 25.4998 15.275C25.4998 16.2105 25.1318 17.1085 24.4753 17.775L18.0003 24.3313L11.5253 17.775C10.8688 17.1085 10.5008 16.2105 10.5008 15.275C10.5008 14.3395 10.8688 13.4415 11.5253 12.775C11.8441 12.4503 12.2244 12.1925 12.644 12.0164C13.0636 11.8404 13.514 11.7497 13.969 11.7497C14.4241 11.7497 14.8745 11.8404 15.2941 12.0164C15.7137 12.1925 16.094 12.4503 16.4128 12.775L18.0003 14.4L19.5815 12.7875C19.8992 12.4587 20.2799 12.1974 20.7008 12.0192C21.1218 11.8409 21.5744 11.7493 22.0315 11.75ZM22.0315 10.5C21.41 10.4995 20.7947 10.623 20.2216 10.8634C19.6485 11.1038 19.1292 11.4563 18.694 11.9L18.0003 12.6L17.3065 11.9C16.8709 11.4571 16.3514 11.1053 15.7784 10.8651C15.2054 10.625 14.5903 10.5013 13.969 10.5013C13.3477 10.5013 12.7327 10.625 12.1597 10.8651C11.5867 11.1053 11.0672 11.4571 10.6315 11.9C9.74521 12.8023 9.2486 14.0165 9.2486 15.2813C9.2486 16.546 9.74521 17.7602 10.6315 18.6625L18.0003 26.125L25.369 18.6625C26.2554 17.7602 26.752 16.546 26.752 15.2813C26.752 14.0165 26.2554 12.8023 25.369 11.9C24.9335 11.4568 24.4141 11.1048 23.8411 10.8644C23.268 10.6241 22.6529 10.5002 22.0315 10.5Z" fill="#637381"/>
</svg>
