<svg width="24" height="24" viewBox="0 0 24 24" fill="none" xmlns="http://www.w3.org/2000/svg">
<path d="M21.3779 6.10218L12.3779 0.852178C12.2632 0.785261 12.1328 0.75 12 0.75C11.8672 0.75 11.7368 0.785261 11.6221 0.852178L2.62207 6.10218C2.50885 6.16823 2.41491 6.26281 2.34963 6.37648C2.28435 6.49015 2.25 6.61894 2.25 6.75003V17.25C2.25 17.3811 2.28435 17.5099 2.34963 17.6236C2.41491 17.7372 2.50885 17.8318 2.62207 17.8979L11.6221 23.1479C11.7368 23.2148 11.8672 23.2501 12 23.2501C12.1328 23.2501 12.2632 23.2148 12.3779 23.1479L21.3779 17.8979C21.4911 17.8318 21.5851 17.7372 21.6504 17.6236C21.7157 17.5099 21.75 17.3811 21.75 17.25V6.75003C21.75 6.61894 21.7157 6.49015 21.6504 6.37648C21.5851 6.26281 21.4911 6.16823 21.3779 6.10218ZM12 2.3683L19.5117 6.75003L12 11.1318L4.4883 6.75003L12 2.3683ZM3.75 8.05593L11.25 12.4307V21.1941L3.75 16.8194V8.05593ZM12.75 21.1941V12.4307L20.25 8.05593V16.8194L12.75 21.1941Z" fill="#919EAB"/>
</svg>
