<svg width="24" height="24" viewBox="0 0 24 24" fill="none" xmlns="http://www.w3.org/2000/svg">
<path d="M17.25 11.832H15.75V13.332H17.25V11.832Z" fill="#919EAB"/>
<path d="M12.75 11.832H6.75V13.332H12.75V11.832Z" fill="#919EAB"/>
<path d="M17.25 8.83203H15.75V10.332H17.25V8.83203Z" fill="#919EAB"/>
<path d="M12.75 8.83203H6.75V10.332H12.75V8.83203Z" fill="#919EAB"/>
<path d="M17.25 5.83203H6.75V7.33203H17.25V5.83203Z" fill="#919EAB"/>
<path d="M18.75 1.33203H5.25C4.8523 1.33243 4.471 1.49059 4.18978 1.77181C3.90856 2.05303 3.7504 2.43433 3.75 2.83203V21.582C3.75 21.7809 3.82902 21.9717 3.96967 22.1124C4.11032 22.253 4.30109 22.332 4.5 22.332H5.25C5.36645 22.3321 5.48131 22.305 5.58546 22.253C5.68962 22.2009 5.78019 22.1252 5.85 22.032L7.5 19.8323L9.15 22.032C9.22284 22.1207 9.31443 22.1921 9.41817 22.2412C9.52192 22.2902 9.63525 22.3156 9.75 22.3156C9.86475 22.3156 9.97808 22.2902 10.0818 22.2412C10.1856 22.1921 10.2772 22.1207 10.35 22.032L12 19.8323L13.65 22.032C13.7228 22.1207 13.8144 22.1921 13.9182 22.2412C14.0219 22.2902 14.1352 22.3156 14.25 22.3156C14.3648 22.3156 14.4781 22.2902 14.5818 22.2412C14.6856 22.1921 14.7772 22.1207 14.85 22.032L16.5 19.8323L18.15 22.032C18.2198 22.1252 18.3104 22.2008 18.4146 22.2529C18.5187 22.305 18.6336 22.3321 18.75 22.332H19.5C19.6989 22.332 19.8897 22.253 20.0303 22.1124C20.171 21.9717 20.25 21.7809 20.25 21.582V2.83203C20.2495 2.43435 20.0914 2.05308 19.8102 1.77188C19.5289 1.49067 19.1477 1.33249 18.75 1.33203ZM18.75 20.3318L17.1 18.132C17.0272 18.0434 16.9356 17.9719 16.8318 17.9229C16.7281 17.8739 16.6148 17.8484 16.5 17.8484C16.3852 17.8484 16.2719 17.8739 16.1682 17.9229C16.0644 17.9719 15.9728 18.0434 15.9 18.132L14.25 20.3318L12.6 18.132C12.5272 18.0434 12.4356 17.9719 12.3318 17.9229C12.2281 17.8739 12.1148 17.8484 12 17.8484C11.8852 17.8484 11.7719 17.8739 11.6682 17.9229C11.5644 17.9719 11.4728 18.0434 11.4 18.132L9.75 20.3318L8.1 18.132C8.02716 18.0434 7.93557 17.9719 7.83183 17.9229C7.72808 17.8739 7.61475 17.8484 7.5 17.8484C7.38525 17.8484 7.27192 17.8739 7.16817 17.9229C7.06443 17.9719 6.97284 18.0434 6.9 18.132L5.25 20.3318V2.83203H18.75V20.3318Z" fill="#919EAB"/>
</svg>
