<svg width="15" height="18" viewBox="0 0 15 18" fill="none" xmlns="http://www.w3.org/2000/svg">
<path d="M7.66602 10.25C7.04796 10.25 6.44377 10.0667 5.92987 9.72334C5.41596 9.37996 5.01542 8.8919 4.7789 8.32088C4.54238 7.74987 4.48049 7.12153 4.60107 6.51534C4.72165 5.90915 5.01928 5.35233 5.45632 4.91529C5.89335 4.47825 6.45018 4.18062 7.05637 4.06004C7.66256 3.93947 8.29089 4.00135 8.86191 4.23788C9.43293 4.4744 9.92099 4.87494 10.2644 5.38884C10.6077 5.90275 10.791 6.50693 10.791 7.125C10.7901 7.95351 10.4605 8.74782 9.87469 9.33367C9.28885 9.91951 8.49454 10.2491 7.66602 10.25ZM7.66602 5.25C7.29518 5.25 6.93267 5.35997 6.62433 5.56599C6.31599 5.77202 6.07566 6.06486 5.93375 6.40747C5.79184 6.75008 5.7547 7.12708 5.82705 7.49079C5.8994 7.85451 6.07798 8.1886 6.3402 8.45082C6.60242 8.71305 6.93652 8.89162 7.30023 8.96397C7.66394 9.03632 8.04094 8.99919 8.38356 8.85727C8.72617 8.71536 9.019 8.47504 9.22503 8.16669C9.43106 7.85835 9.54103 7.49584 9.54103 7.125C9.54048 6.62789 9.34276 6.15129 8.99125 5.79978C8.63973 5.44826 8.16314 5.25055 7.66602 5.25Z" fill="#212B36"/>
<path d="M7.66602 17.75L2.39383 11.5321C2.3639 11.4964 2.17621 11.2499 2.17621 11.2499C1.27552 10.0636 0.788911 8.6145 0.791022 7.125C0.791022 5.30164 1.51535 3.55295 2.80466 2.26364C4.09398 0.974328 5.84266 0.25 7.66602 0.25C9.48939 0.25 11.2381 0.974328 12.5274 2.26364C13.8167 3.55295 14.541 5.30164 14.541 7.125C14.5433 8.61389 14.057 10.0624 13.1568 11.2483L13.1558 11.2499C13.1558 11.2499 12.9683 11.4964 12.9404 11.5295L7.66602 17.75ZM3.17384 10.4969C3.17446 10.4973 3.31971 10.6895 3.35296 10.7309L7.66602 15.8174L11.9848 10.7237C12.0122 10.6892 12.1587 10.4956 12.159 10.4951C12.8948 9.5258 13.2925 8.34195 13.291 7.125C13.291 5.63316 12.6984 4.20242 11.6435 3.14752C10.5886 2.09263 9.15787 1.5 7.66602 1.5C6.17418 1.5 4.74344 2.09263 3.68855 3.14752C2.63365 4.20242 2.04102 5.63316 2.04102 7.125C2.03964 8.34261 2.43757 9.52708 3.17384 10.4969Z" fill="#212B36"/>
</svg>
