<svg width="18" height="18" viewBox="0 0 18 18" fill="none" xmlns="http://www.w3.org/2000/svg">
<path d="M14.7375 2.25H3.2625C2.7 2.25 2.25 2.7 2.25 3.20625V14.7375C2.25 15.2438 2.7 15.6937 3.2625 15.6937H14.7375C15.3 15.6937 15.75 15.2438 15.75 14.7375V3.20625C15.75 2.7 15.3 2.25 14.7375 2.25ZM6.24375 13.725H4.275V7.3125H6.24375V13.725ZM5.2875 6.4125C4.66875 6.4125 4.10625 5.90625 4.10625 5.23125C4.10625 4.55625 4.6125 4.05 5.2875 4.05C5.90625 4.05 6.46875 4.55625 6.46875 5.23125C6.46875 5.90625 5.90625 6.4125 5.2875 6.4125ZM13.7812 13.6687H11.8125V10.5188C11.8125 9.7875 11.8125 8.775 10.7438 8.775C9.675 8.775 9.5625 9.61875 9.5625 10.4062V13.6125H7.59375V7.3125H9.45V8.15625H9.50625C9.7875 7.65 10.4625 7.0875 11.4187 7.0875C13.4437 7.0875 13.8375 8.4375 13.8375 10.1813V13.6687H13.7812Z" fill="#007EBB"/>
</svg>
