<svg width="28" height="28" viewBox="0 0 28 28" fill="none" xmlns="http://www.w3.org/2000/svg">
<path d="M19.7375 7.25H8.2625C7.7 7.25 7.25 7.7 7.25 8.20625V19.7375C7.25 20.2438 7.7 20.6937 8.2625 20.6937H19.7375C20.3 20.6937 20.75 20.2438 20.75 19.7375V8.20625C20.75 7.7 20.3 7.25 19.7375 7.25ZM11.2438 18.725H9.275V12.3125H11.2438V18.725ZM10.2875 11.4125C9.66875 11.4125 9.10625 10.9063 9.10625 10.2313C9.10625 9.55625 9.6125 9.05 10.2875 9.05C10.9062 9.05 11.4688 9.55625 11.4688 10.2313C11.4688 10.9063 10.9062 11.4125 10.2875 11.4125ZM18.7812 18.6687H16.8125V15.5188C16.8125 14.7875 16.8125 13.775 15.7438 13.775C14.675 13.775 14.5625 14.6188 14.5625 15.4062V18.6125H12.5938V12.3125H14.45V13.1562H14.5062C14.7875 12.65 15.4625 12.0875 16.4187 12.0875C18.4437 12.0875 18.8375 13.4375 18.8375 15.1813V18.6687H18.7812Z" fill="#FA541C"/>
</svg>
