<svg width="18" height="18" viewBox="0 0 18 18" fill="none" xmlns="http://www.w3.org/2000/svg">
<path fill-rule="evenodd" clip-rule="evenodd" d="M6 3.75C4.75736 3.75 3.75 4.75736 3.75 6V12C3.75 13.2426 4.75736 14.25 6 14.25H12C13.2426 14.25 14.25 13.2426 14.25 12V6C14.25 4.75736 13.2426 3.75 12 3.75H6ZM2.25 6C2.25 3.92893 3.92893 2.25 6 2.25H12C14.0711 2.25 15.75 3.92893 15.75 6V12C15.75 14.0711 14.0711 15.75 12 15.75H6C3.92893 15.75 2.25 14.0711 2.25 12V6ZM9 7.5C8.17157 7.5 7.5 8.17157 7.5 9C7.5 9.82843 8.17157 10.5 9 10.5C9.82843 10.5 10.5 9.82843 10.5 9C10.5 8.17157 9.82843 7.5 9 7.5ZM6 9C6 7.34315 7.34315 6 9 6C10.6569 6 12 7.34315 12 9C12 10.6569 10.6569 12 9 12C7.34315 12 6 10.6569 6 9Z" fill="#E02D69"/>
</svg>
