<svg width="28" height="28" viewBox="0 0 28 28" fill="none" xmlns="http://www.w3.org/2000/svg">
<path d="M17.6033 11.2069C18.0506 11.2069 18.4133 10.8442 18.4133 10.3969C18.4133 9.94952 18.0506 9.58687 17.6033 9.58687C17.1559 9.58687 16.7933 9.94952 16.7933 10.3969C16.7933 10.8442 17.1559 11.2069 17.6033 11.2069Z" fill="#FA541C"/>
<path d="M14.0003 10.5337C13.3148 10.5337 12.6446 10.737 12.0746 11.1179C11.5046 11.4988 11.0603 12.0401 10.798 12.6735C10.5356 13.3069 10.467 14.0038 10.6007 14.6762C10.7345 15.3486 11.0646 15.9662 11.5493 16.451C12.0341 16.9357 12.6517 17.2659 13.3241 17.3996C13.9965 17.5334 14.6934 17.4647 15.3268 17.2024C15.9602 16.94 16.5015 16.4957 16.8824 15.9257C17.2633 15.3557 17.4666 14.6855 17.4666 14C17.4666 13.0807 17.1014 12.199 16.4513 11.549C15.8013 10.8989 14.9197 10.5337 14.0003 10.5337ZM14.0003 16.25C13.5553 16.25 13.1203 16.118 12.7503 15.8708C12.3803 15.6236 12.0919 15.2722 11.9216 14.861C11.7513 14.4499 11.7068 13.9975 11.7936 13.561C11.8804 13.1246 12.0947 12.7237 12.4094 12.409C12.724 12.0943 13.1249 11.88 13.5614 11.7932C13.9979 11.7064 14.4503 11.751 14.8614 11.9213C15.2725 12.0916 15.6239 12.3799 15.8712 12.75C16.1184 13.12 16.2503 13.555 16.2503 14C16.2503 14.5967 16.0133 15.169 15.5913 15.591C15.1694 16.0129 14.5971 16.25 14.0003 16.25Z" fill="#FA541C"/>
<path d="M14 8.46624C15.8023 8.46624 16.0158 8.4731 16.7276 8.50561C17.1556 8.51071 17.5796 8.58933 17.981 8.73804C18.2721 8.85036 18.5364 9.02237 18.7571 9.24299C18.9777 9.46362 19.1497 9.72798 19.262 10.0191C19.4107 10.4205 19.4893 10.8445 19.4944 11.2725C19.5269 11.9842 19.5338 12.1977 19.5338 14.0001C19.5338 15.8024 19.527 16.0159 19.4944 16.7276C19.4893 17.1557 19.4107 17.5796 19.262 17.981C19.1497 18.2721 18.9777 18.5365 18.7571 18.7571C18.5364 18.9777 18.2721 19.1498 17.981 19.2621C17.5796 19.4108 17.1556 19.4894 16.7276 19.4945C16.0159 19.527 15.8025 19.5339 14 19.5339C12.1975 19.5339 11.9841 19.527 11.2724 19.4945C10.8444 19.4894 10.4204 19.4108 10.019 19.2621C9.72792 19.1498 9.46356 18.9777 9.24294 18.7571C9.02231 18.5365 8.8503 18.2721 8.73798 17.981C8.58927 17.5796 8.51065 17.1557 8.50556 16.7276C8.4731 16.0159 8.46618 15.8024 8.46618 14.0001C8.46618 12.1977 8.47304 11.9842 8.50556 11.2725C8.51065 10.8445 8.58927 10.4205 8.73798 10.0191C8.8503 9.72797 9.0223 9.4636 9.24293 9.24296C9.46355 9.02233 9.72792 8.85031 10.019 8.73798C10.4204 8.58927 10.8444 8.51065 11.2724 8.50556C11.9842 8.4731 12.1977 8.46624 14 8.46624ZM14 7.25C12.1668 7.25 11.9369 7.25776 11.217 7.29061C10.6571 7.30185 10.1032 7.40794 9.57875 7.60438C9.13029 7.7778 8.72301 8.04301 8.38301 8.38301C8.04301 8.72301 7.7778 9.13029 7.60438 9.57875C7.40791 10.1033 7.30182 10.6573 7.29061 11.2173C7.25776 11.9369 7.25 12.1668 7.25 14C7.25 15.8332 7.25776 16.0631 7.29061 16.783C7.30183 17.343 7.40792 17.897 7.60438 18.4215C7.7778 18.87 8.04301 19.2773 8.38301 19.6173C8.72301 19.9573 9.13029 20.2225 9.57875 20.3959C10.1033 20.5924 10.6573 20.6985 11.2173 20.7097C11.9369 20.7422 12.1668 20.75 14 20.75C15.8332 20.75 16.0631 20.7422 16.783 20.7094C17.343 20.6982 17.897 20.5921 18.4215 20.3956C18.87 20.2222 19.2773 19.957 19.6173 19.617C19.9573 19.277 20.2225 18.8697 20.3959 18.4213C20.5924 17.8967 20.6985 17.3427 20.7097 16.7827C20.7422 16.0631 20.75 15.8332 20.75 14C20.75 12.1668 20.7422 11.9369 20.7094 11.217C20.6981 10.6571 20.5921 10.1032 20.3956 9.57875C20.2222 9.13034 19.9569 8.72311 19.6169 8.38317C19.277 8.04322 18.8697 7.77805 18.4213 7.60466C17.8967 7.4082 17.3427 7.30211 16.7827 7.29089C16.0631 7.25776 15.8332 7.25 14 7.25Z" fill="#FA541C"/>
</svg>
