<svg width="36" height="36" viewBox="0 0 36 36" fill="none" xmlns="http://www.w3.org/2000/svg">
<path d="M15.45 23.5871C16.5057 23.5937 17.5522 23.3907 18.5289 22.9897C19.5055 22.5888 20.3928 21.9979 21.1393 21.2514C21.8858 20.5049 22.4767 19.6176 22.8777 18.641C23.2786 17.6643 23.4816 16.6178 23.475 15.5621C23.475 15.4371 23.475 15.3183 23.475 15.1933C24.0222 14.7924 24.4959 14.2997 24.875 13.7371C24.3597 13.9625 23.8144 14.1119 23.2563 14.1808C23.8481 13.8282 24.2921 13.2731 24.5063 12.6183C23.9547 12.9492 23.3499 13.1819 22.7188 13.3058C22.2937 12.8529 21.7313 12.5527 21.1184 12.4517C20.5056 12.3507 19.8765 12.4544 19.3286 12.7469C18.7806 13.0393 18.3444 13.5042 18.0873 14.0696C17.8301 14.635 17.7665 15.2694 17.9062 15.8746C16.785 15.8195 15.6879 15.529 14.6865 15.0218C13.685 14.5146 12.8016 13.8021 12.0938 12.9308C11.7368 13.5503 11.6286 14.2823 11.7911 14.9785C11.9536 15.6748 12.3745 16.2833 12.9687 16.6808C12.5304 16.6639 12.1022 16.544 11.7187 16.3308V16.3621C11.7149 17.0095 11.933 17.6387 12.3367 18.1448C12.7404 18.6508 13.3054 19.0033 13.9375 19.1433C13.5298 19.253 13.1027 19.2701 12.6875 19.1933C12.8705 19.7455 13.2198 20.2274 13.6875 20.5732C14.1553 20.919 14.7185 21.1116 15.3 21.1246C14.3058 21.9249 13.0701 22.3654 11.7938 22.3746C11.57 22.3681 11.3467 22.3493 11.125 22.3183C12.4168 23.1414 13.9183 23.5753 15.45 23.5683" fill="white"/>
</svg>
