<svg width="36" height="36" viewBox="0 0 36 36" fill="none" xmlns="http://www.w3.org/2000/svg">
<path d="M21.125 22.3749C21.8154 22.3749 22.375 21.8153 22.375 21.1249C22.375 20.4346 21.8154 19.8749 21.125 19.8749C20.4346 19.8749 19.875 20.4346 19.875 21.1249C19.875 21.8153 20.4346 22.3749 21.125 22.3749Z" fill="white"/>
<path d="M12.375 13.6249C13.0654 13.6249 13.625 13.0653 13.625 12.3749C13.625 11.6846 13.0654 11.1249 12.375 11.1249C11.6846 11.1249 11.125 11.6846 11.125 12.3749C11.125 13.0653 11.6846 13.6249 12.375 13.6249Z" fill="white"/>
<path d="M24.875 27.3749C24.3805 27.3749 23.8972 27.2283 23.4861 26.9536C23.075 26.6789 22.7545 26.2885 22.5653 25.8317C22.3761 25.3748 22.3266 24.8722 22.423 24.3872C22.5195 23.9023 22.7576 23.4568 23.1072 23.1072C23.4569 22.7575 23.9023 22.5194 24.3873 22.423C24.8722 22.3265 25.3749 22.376 25.8317 22.5652C26.2885 22.7545 26.679 23.0749 26.9537 23.486C27.2284 23.8971 27.375 24.3805 27.375 24.8749C27.3731 25.5374 27.109 26.1721 26.6406 26.6406C26.1722 27.109 25.5374 27.373 24.875 27.3749ZM24.875 23.6249C24.6278 23.6249 24.3861 23.6983 24.1805 23.8356C23.975 23.973 23.8148 24.1682 23.7201 24.3966C23.6255 24.625 23.6008 24.8763 23.649 25.1188C23.6972 25.3613 23.8163 25.584 23.9911 25.7588C24.1659 25.9336 24.3887 26.0527 24.6311 26.1009C24.8736 26.1492 25.1249 26.1244 25.3534 26.0298C25.5818 25.9352 25.777 25.775 25.9143 25.5694C26.0517 25.3638 26.125 25.1222 26.125 24.8749C26.124 24.5437 25.992 24.2263 25.7578 23.9921C25.5236 23.7579 25.2062 23.6259 24.875 23.6249Z" fill="white"/>
<path d="M26.75 18C26.7432 15.6814 25.8192 13.4598 24.1797 11.8203C22.5402 10.1808 20.3186 9.25677 18 9.24998C16.507 9.22867 15.0369 9.61782 13.75 10.375L14.4375 11.4375C14.926 11.2027 15.4268 10.994 15.9375 10.8125C14.9043 12.8512 14.3284 15.0908 14.25 17.375H10.5C10.57 16.343 10.8689 15.3396 11.375 14.4375L10.4375 13.625C9.65982 14.9518 9.24991 16.462 9.25 18C9.24986 19.1491 9.47609 20.287 9.91577 21.3486C10.3554 22.4103 11 23.3749 11.8125 24.1875C12.625 25 13.5897 25.6445 14.6514 26.0842C15.713 26.5239 16.8509 26.7501 18 26.75C19.1142 26.7605 20.2192 26.548 21.25 26.125L20.875 24.9375C19.8503 25.3757 18.7374 25.5683 17.625 25.5C16.2922 23.45 15.5564 21.0695 15.5 18.625H26.6875C26.7392 18.4209 26.7602 18.2103 26.75 18ZM16 25.25C14.7572 24.8775 13.6214 24.2132 12.6875 23.3125C11.4474 22.0436 10.676 20.3905 10.5 18.625H14.25C14.336 20.9356 14.9337 23.1983 16 25.25ZM15.5 17.375C15.5497 14.9384 16.2628 12.5615 17.5625 10.5H18.4375C19.7372 12.5615 20.4503 14.9384 20.5 17.375H15.5ZM21.75 17.375C21.7025 15.0588 21.1025 12.7875 20 10.75C21.4705 11.1738 22.7778 12.0342 23.7487 13.2171C24.7196 14.4001 25.3085 15.85 25.4375 17.375H21.75Z" fill="white"/>
</svg>
