<svg width="36" height="36" viewBox="0 0 36 36" fill="none" xmlns="http://www.w3.org/2000/svg">
<path d="M26.1256 25.2411L21.4056 20.521C22.5398 19.1594 23.1054 17.4129 22.9847 15.6449C22.864 13.8768 22.0663 12.2234 20.7576 11.0285C19.4488 9.83363 17.7298 9.1893 15.9581 9.22956C14.1865 9.26982 12.4985 9.99157 11.2454 11.2447C9.9923 12.4978 9.27055 14.1857 9.23029 15.9574C9.19003 17.7291 9.83436 19.4481 11.0292 20.7568C12.2241 22.0655 13.8776 22.8632 15.6456 22.9839C17.4136 23.1046 19.1601 22.539 20.5218 21.4048L25.2418 26.1249L26.1256 25.2411ZM10.5006 16.1249C10.5006 15.0124 10.8305 13.9248 11.4486 12.9998C12.0667 12.0748 12.9452 11.3538 13.973 10.9281C15.0009 10.5023 16.1319 10.3909 17.223 10.608C18.3142 10.825 19.3164 11.3608 20.1031 12.1474C20.8898 12.9341 21.4255 13.9364 21.6426 15.0275C21.8596 16.1187 21.7482 17.2497 21.3225 18.2775C20.8967 19.3053 20.1757 20.1838 19.2507 20.8019C18.3257 21.42 17.2382 21.7499 16.1256 21.7499C14.6343 21.7483 13.2045 21.1551 12.15 20.1006C11.0955 19.046 10.5023 17.6162 10.5006 16.1249Z" fill="white"/>
</svg>
