<svg width="23" height="22" viewBox="0 0 23 22" fill="none" xmlns="http://www.w3.org/2000/svg">
<path d="M18.833 9.5H17.333V11H18.833C19.4295 11.0007 20.0015 11.2379 20.4233 11.6597C20.8451 12.0815 21.0824 12.6535 21.083 13.25V16.25H22.583V13.25C22.5819 12.2558 22.1864 11.3026 21.4834 10.5996C20.7804 9.89661 19.8272 9.50115 18.833 9.5Z" fill="#637381"/>
<path d="M17.333 2C17.778 2 18.213 2.13196 18.583 2.37919C18.9531 2.62643 19.2414 2.97783 19.4117 3.38896C19.582 3.8001 19.6266 4.2525 19.5398 4.68895C19.453 5.12541 19.2387 5.52632 18.924 5.84099C18.6093 6.15566 18.2084 6.36995 17.772 6.45677C17.3355 6.54358 16.8831 6.49903 16.472 6.32873C16.0608 6.15843 15.7094 5.87004 15.4622 5.50003C15.215 5.13002 15.083 4.69501 15.083 4.25C15.083 3.65326 15.3201 3.08097 15.742 2.65901C16.164 2.23705 16.7363 2 17.333 2ZM17.333 0.5C16.5913 0.5 15.8663 0.719934 15.2496 1.13199C14.6329 1.54404 14.1523 2.12971 13.8685 2.81494C13.5846 3.50016 13.5104 4.25416 13.6551 4.98159C13.7998 5.70902 14.1569 6.3772 14.6814 6.90165C15.2058 7.4261 15.874 7.78325 16.6014 7.92795C17.3288 8.07264 18.0828 7.99838 18.7681 7.71455C19.4533 7.43072 20.039 6.95007 20.451 6.33339C20.8631 5.7167 21.083 4.99168 21.083 4.25C21.083 3.25544 20.6879 2.30161 19.9847 1.59835C19.2814 0.895088 18.3276 0.5 17.333 0.5Z" fill="#637381"/>
<path d="M16.583 21.5H15.083V20C15.0824 19.4035 14.8451 18.8315 14.4233 18.4097C14.0015 17.9879 13.4295 17.7507 12.833 17.75H9.83301C9.23647 17.7507 8.66456 17.9879 8.24274 18.4097C7.82093 18.8315 7.58366 19.4035 7.58301 20V21.5H6.08301V20C6.08418 19.0058 6.47964 18.0527 7.18265 17.3496C7.88566 16.6466 8.83881 16.2512 9.83301 16.25H12.833C13.8272 16.2512 14.7804 16.6466 15.4834 17.3496C16.1864 18.0527 16.5818 19.0058 16.583 20V21.5Z" fill="#637381"/>
<path d="M11.333 8.75C11.778 8.75 12.213 8.88196 12.583 9.12919C12.953 9.37643 13.2414 9.72783 13.4117 10.139C13.582 10.5501 13.6266 11.0025 13.5398 11.439C13.453 11.8754 13.2387 12.2763 12.924 12.591C12.6093 12.9057 12.2084 13.12 11.772 13.2068C11.3355 13.2936 10.8831 13.249 10.472 13.0787C10.0608 12.9084 9.70943 12.62 9.4622 12.25C9.21497 11.88 9.08301 11.445 9.08301 11C9.08301 10.4033 9.32006 9.83097 9.74202 9.40901C10.164 8.98705 10.7363 8.75 11.333 8.75ZM11.333 7.25C10.5913 7.25 9.8663 7.46993 9.24962 7.88199C8.63293 8.29404 8.15229 8.87971 7.86846 9.56494C7.58463 10.2502 7.51037 11.0042 7.65506 11.7316C7.79976 12.459 8.15691 13.1272 8.68136 13.6517C9.2058 14.1761 9.87399 14.5333 10.6014 14.6779C11.3288 14.8226 12.0828 14.7484 12.7681 14.4645C13.4533 14.1807 14.039 13.7001 14.451 13.0834C14.8631 12.4667 15.083 11.7417 15.083 11C15.083 10.0054 14.6879 9.05161 13.9847 8.34835C13.2814 7.64509 12.3276 7.25 11.333 7.25Z" fill="#637381"/>
<path d="M5.33301 9.5H3.83301C2.83881 9.50117 1.88566 9.89664 1.18265 10.5996C0.479643 11.3027 0.0841789 12.2558 0.0830078 13.25V16.25H1.58301V13.25C1.58366 12.6535 1.82093 12.0815 2.24274 11.6597C2.66456 11.2379 3.23647 11.0007 3.83301 11H5.33301V9.5Z" fill="#637381"/>
<path d="M5.33301 2C5.77802 2 6.21303 2.13196 6.58304 2.37919C6.95305 2.62643 7.24144 2.97783 7.41174 3.38896C7.58203 3.8001 7.62659 4.2525 7.53977 4.68895C7.45296 5.12541 7.23867 5.52632 6.924 5.84099C6.60933 6.15566 6.20842 6.36995 5.77196 6.45677C5.3355 6.54358 4.8831 6.49903 4.47197 6.32873C4.06084 6.15843 3.70943 5.87004 3.4622 5.50003C3.21497 5.13002 3.08301 4.69501 3.08301 4.25C3.08301 3.65326 3.32006 3.08097 3.74202 2.65901C4.16397 2.23705 4.73627 2 5.33301 2ZM5.33301 0.5C4.59133 0.5 3.8663 0.719934 3.24962 1.13199C2.63293 1.54404 2.15229 2.12971 1.86846 2.81494C1.58463 3.50016 1.51037 4.25416 1.65506 4.98159C1.79976 5.70902 2.15691 6.3772 2.68136 6.90165C3.2058 7.4261 3.87399 7.78325 4.60142 7.92795C5.32885 8.07264 6.08285 7.99838 6.76807 7.71455C7.45329 7.43072 8.03896 6.95007 8.45102 6.33339C8.86307 5.7167 9.08301 4.99168 9.08301 4.25C9.08301 3.25544 8.68792 2.30161 7.98466 1.59835C7.2814 0.895088 6.32757 0.5 5.33301 0.5Z" fill="#637381"/>
</svg>
