<svg width="16" height="18" viewBox="0 0 16 18" fill="none" xmlns="http://www.w3.org/2000/svg">
<path d="M6.89989 5.1C6.93638 4.84658 7.09801 4.62856 7.32989 4.52C7.4328 4.47086 7.5459 4.44687 7.65989 4.45H12.5399C13.0753 4.44403 13.6103 4.48081 14.1399 4.56L14.5599 4.64L14.9399 4.74L15.1299 4.8C15.3604 4.87505 15.5845 4.96869 15.7999 5.08C16.1249 3.83063 15.827 2.50118 14.9999 1.51C13.9999 0.450001 12.3599 6.64913e-07 10.2199 6.64913e-07H3.99989C3.56199 -0.000530767 3.18877 0.317555 3.11989 0.750001L0.52989 17.16C0.506704 17.3148 0.551786 17.472 0.653464 17.5909C0.755142 17.7098 0.903415 17.7788 1.05989 17.78H4.89989L5.89989 11.67L6.89989 5.1Z" fill="#253D80"/>
</svg>
