<svg width="11" height="17" viewBox="0 0 11 17" fill="none" xmlns="http://www.w3.org/2000/svg">
<path d="M9.41602 0.5H1.91602C1.5846 0.500331 1.26685 0.632133 1.0325 0.866482C0.798149 1.10083 0.666347 1.41858 0.666016 1.75V15.5C0.666396 15.8314 0.798215 16.1491 1.03255 16.3835C1.26689 16.6178 1.58461 16.7496 1.91602 16.75H9.41602C9.7474 16.7496 10.0651 16.6177 10.2994 16.3834C10.5337 16.1491 10.6656 15.8314 10.666 15.5V1.75C10.6656 1.4186 10.5338 1.10087 10.2995 0.866537C10.0651 0.632199 9.74742 0.50038 9.41602 0.5V0.5ZM9.41602 1.75V3H1.91602V1.75H9.41602ZM1.91602 15.5V4.25H9.41602V15.5H1.91602Z" fill="#212B36"/>
</svg>
