<svg width="20" height="20" viewBox="0 0 20 20" fill="none" xmlns="http://www.w3.org/2000/svg">
<path d="M18.1247 17.2411L13.4046 12.521C14.5388 11.1594 15.1044 9.41288 14.9837 7.64485C14.863 5.87682 14.0653 4.22339 12.7566 3.02851C11.4479 1.83363 9.72885 1.1893 7.95717 1.22956C6.18548 1.26982 4.49752 1.99157 3.24442 3.24467C1.99133 4.49776 1.26958 6.18572 1.22932 7.95741C1.18906 9.7291 1.83339 11.4481 3.02827 12.7568C4.22315 14.0655 5.87658 14.8632 7.64461 14.9839C9.41264 15.1046 11.1591 14.539 12.5208 13.4048L17.2408 18.1249L18.1247 17.2411ZM2.49966 8.1249C2.49966 7.01238 2.82956 5.92485 3.44764 4.99982C4.06573 4.0748 4.94423 3.35382 5.97207 2.92808C6.9999 2.50234 8.1309 2.39094 9.22204 2.60799C10.3132 2.82503 11.3155 3.36076 12.1021 4.14743C12.8888 4.9341 13.4245 5.93638 13.6416 7.02752C13.8586 8.11866 13.7472 9.24966 13.3215 10.2775C12.8957 11.3053 12.1748 12.1838 11.2497 12.8019C10.3247 13.42 9.23718 13.7499 8.12466 13.7499C6.63333 13.7483 5.20355 13.1551 4.14901 12.1006C3.09448 11.046 2.50131 9.61624 2.49966 8.1249Z" fill="white"/>
</svg>
