<svg width="36" height="36" viewBox="0 0 36 36" fill="none" xmlns="http://www.w3.org/2000/svg">
<path d="M22.3747 20.4999C21.9069 20.5022 21.4455 20.6096 21.0247 20.814C20.6039 21.0185 20.2344 21.3148 19.9434 21.6811L15.3747 18.8249C15.5412 18.2875 15.5412 17.7123 15.3747 17.1749L19.9434 14.3186C20.4072 14.8928 21.0591 15.2844 21.7839 15.4239C22.5086 15.5634 23.2594 15.4419 23.9031 15.0809C24.5469 14.7199 25.0421 14.1427 25.301 13.4515C25.5599 12.7604 25.5659 11.9999 25.3178 11.3048C25.0697 10.6097 24.5836 10.0248 23.9455 9.65378C23.3075 9.28276 22.5588 9.14954 21.8319 9.27772C21.1051 9.4059 20.447 9.7872 19.9744 10.3541C19.5018 10.921 19.245 11.6368 19.2497 12.3749C19.2526 12.6544 19.2947 12.9321 19.3747 13.1999L14.8059 16.0561C14.4026 15.5484 13.8513 15.1787 13.2284 14.9983C12.6055 14.8178 11.942 14.8357 11.3297 15.0493C10.7174 15.2629 10.1867 15.6616 9.81124 16.1903C9.43574 16.719 9.23401 17.3514 9.23401 17.9999C9.23401 18.6484 9.43574 19.2808 9.81124 19.8094C10.1867 20.3381 10.7174 20.7369 11.3297 20.9505C11.942 21.1641 12.6055 21.1819 13.2284 21.0015C13.8513 20.8211 14.4026 20.4514 14.8059 19.9436L19.3747 22.7999C19.2947 23.0677 19.2526 23.3454 19.2497 23.6249C19.2497 24.243 19.433 24.8471 19.7763 25.361C20.1197 25.8749 20.6078 26.2755 21.1788 26.512C21.7498 26.7485 22.3782 26.8104 22.9843 26.6898C23.5905 26.5693 24.1474 26.2716 24.5844 25.8346C25.0214 25.3976 25.3191 24.8407 25.4396 24.2345C25.5602 23.6284 25.4983 23 25.2618 22.429C25.0253 21.858 24.6247 21.3699 24.1108 21.0265C23.5969 20.6832 22.9928 20.4999 22.3747 20.4999ZM22.3747 10.4999C22.7455 10.4999 23.108 10.6099 23.4164 10.8159C23.7247 11.0219 23.965 11.3147 24.107 11.6574C24.2489 12 24.286 12.377 24.2137 12.7407C24.1413 13.1044 23.9627 13.4385 23.7005 13.7007C23.4383 13.9629 23.1042 14.1415 22.7405 14.2139C22.3768 14.2862 21.9998 14.2491 21.6572 14.1072C21.3145 13.9652 21.0217 13.7249 20.8157 13.4166C20.6097 13.1082 20.4997 12.7457 20.4997 12.3749C20.4997 11.8776 20.6972 11.4007 21.0489 11.0491C21.4005 10.6974 21.8774 10.4999 22.3747 10.4999ZM12.3747 19.8749C12.0038 19.8749 11.6413 19.7649 11.333 19.5589C11.0247 19.3529 10.7843 19.06 10.6424 18.7174C10.5005 18.3748 10.4634 17.9978 10.5357 17.6341C10.6081 17.2704 10.7866 16.9363 11.0489 16.6741C11.3111 16.4118 11.6452 16.2333 12.0089 16.1609C12.3726 16.0886 12.7496 16.1257 13.0922 16.2676C13.4348 16.4095 13.7277 16.6498 13.9337 16.9582C14.1397 17.2665 14.2497 17.629 14.2497 17.9999C14.2497 18.4972 14.0521 18.9741 13.7005 19.3257C13.3489 19.6773 12.872 19.8749 12.3747 19.8749ZM22.3747 25.4999C22.0038 25.4999 21.6413 25.3899 21.333 25.1839C21.0247 24.9779 20.7843 24.685 20.6424 24.3424C20.5005 23.9998 20.4634 23.6228 20.5357 23.2591C20.6081 22.8954 20.7866 22.5613 21.0489 22.2991C21.3111 22.0368 21.6452 21.8583 22.0089 21.7859C22.3726 21.7136 22.7496 21.7507 23.0922 21.8926C23.4348 22.0345 23.7277 22.2748 23.9337 22.5832C24.1397 22.8915 24.2497 23.254 24.2497 23.6249C24.2497 24.1222 24.0521 24.5991 23.7005 24.9507C23.3489 25.3023 22.872 25.4999 22.3747 25.4999Z" fill="#637381"/>
</svg>
