<svg width="28" height="28" viewBox="0 0 28 28" fill="none" xmlns="http://www.w3.org/2000/svg">
<path d="M11.705 19.0289C12.6551 19.0348 13.597 18.8521 14.476 18.4913C15.355 18.1304 16.1535 17.5986 16.8254 16.9268C17.4973 16.2549 18.029 15.4563 18.3899 14.5773C18.7507 13.6984 18.9335 12.7565 18.9275 11.8064C18.9275 11.6939 18.9275 11.587 18.9275 11.4745C19.42 11.1136 19.8463 10.6702 20.1875 10.1639C19.7237 10.3667 19.233 10.5012 18.7306 10.5632C19.2633 10.2459 19.6629 9.7463 19.8556 9.15699C19.3592 9.4548 18.8149 9.66416 18.2469 9.77574C17.8643 9.36813 17.3581 9.09796 16.8066 9.00702C16.255 8.91608 15.6889 9.00944 15.1957 9.27267C14.7026 9.53589 14.3099 9.9543 14.0785 10.4632C13.8471 10.972 13.7899 11.5429 13.9156 12.0876C12.9065 12.0381 11.9192 11.7766 11.0178 11.3201C10.1165 10.8636 9.32143 10.2224 8.68438 9.43824C8.36314 9.99577 8.26578 10.6545 8.41199 11.2812C8.5582 11.9078 8.93707 12.4554 9.47187 12.8132C9.07734 12.798 8.69194 12.6901 8.34687 12.4982V12.5264C8.34337 13.109 8.53966 13.6753 8.90302 14.1308C9.26639 14.5863 9.77488 14.9034 10.3438 15.0295C9.9768 15.1282 9.59241 15.1436 9.21875 15.0745C9.38344 15.5714 9.69782 16.0052 10.1188 16.3164C10.5397 16.6276 11.0466 16.8009 11.57 16.8126C10.6752 17.5329 9.56305 17.9294 8.41438 17.9376C8.21297 17.9318 8.01205 17.9149 7.8125 17.887C8.97516 18.6277 10.3264 19.0183 11.705 19.012" fill="#FA541C"/>
</svg>
