<svg width="20" height="20" viewBox="0 0 20 20" fill="none" xmlns="http://www.w3.org/2000/svg">
<path d="M7.45 15.5871C8.50571 15.5937 9.55224 15.3907 10.5289 14.9897C11.5055 14.5888 12.3928 13.9979 13.1393 13.2514C13.8858 12.5049 14.4767 11.6176 14.8777 10.641C15.2786 9.66432 15.4816 8.6178 15.475 7.56208C15.475 7.43708 15.475 7.31833 15.475 7.19333C16.0222 6.79239 16.4959 6.29969 16.875 5.73708C16.3597 5.96246 15.8144 6.11193 15.2563 6.18083C15.8481 5.8282 16.2921 5.27313 16.5063 4.61833C15.9547 4.94923 15.3499 5.18186 14.7188 5.30583C14.2937 4.85294 13.7313 4.55274 13.1184 4.4517C12.5056 4.35066 11.8765 4.4544 11.3286 4.74687C10.7806 5.03934 10.3444 5.50424 10.0873 6.06963C9.83014 6.63502 9.76652 7.26939 9.90625 7.87458C8.78502 7.81955 7.68794 7.52897 6.68647 7.02177C5.685 6.51458 4.80159 5.80213 4.09375 4.93083C3.73683 5.55032 3.62864 6.28229 3.7911 6.97854C3.95356 7.67478 4.37452 8.28329 4.96875 8.68083C4.53038 8.66393 4.10216 8.54402 3.71875 8.33083V8.36208C3.71485 9.00948 3.93295 9.63866 4.33669 10.1448C4.74043 10.6508 5.30542 11.0033 5.9375 11.1433C5.52977 11.253 5.10268 11.2701 4.6875 11.1933C4.87049 11.7455 5.2198 12.2274 5.68753 12.5732C6.15526 12.919 6.71849 13.1116 7.3 13.1246C6.30576 13.9249 5.07006 14.3654 3.79375 14.3746C3.56997 14.3681 3.34672 14.3493 3.125 14.3183C4.41685 15.1414 5.91825 15.5753 7.45 15.5683" fill="#212B36"/>
</svg>
