<svg width="18" height="18" viewBox="0 0 18 18" fill="none" xmlns="http://www.w3.org/2000/svg">
<path d="M6.705 14.0289C7.65514 14.0348 8.59701 13.8521 9.47599 13.4913C10.355 13.1304 11.1535 12.5986 11.8254 11.9268C12.4973 11.2549 13.029 10.4563 13.3899 9.57735C13.7507 8.69838 13.9335 7.7565 13.9275 6.80636C13.9275 6.69386 13.9275 6.58699 13.9275 6.47449C14.42 6.11364 14.8463 5.67021 15.1875 5.16386C14.7237 5.3667 14.233 5.50122 13.7306 5.56324C14.2633 5.24586 14.6629 4.7463 14.8556 4.15699C14.3592 4.4548 13.8149 4.66416 13.2469 4.77574C12.8643 4.36813 12.3581 4.09796 11.8066 4.00702C11.255 3.91608 10.6889 4.00944 10.1957 4.27267C9.70258 4.53589 9.30993 4.9543 9.07853 5.46316C8.84713 5.97201 8.78987 6.54294 8.91563 7.08761C7.90651 7.03808 6.91915 6.77656 6.01783 6.32009C5.1165 5.86361 4.32143 5.22241 3.68438 4.43824C3.36314 4.99577 3.26578 5.65455 3.41199 6.28117C3.5582 6.90779 3.93707 7.45545 4.47187 7.81324C4.07734 7.79802 3.69194 7.69011 3.34687 7.49824V7.52636C3.34337 8.10902 3.53966 8.67528 3.90302 9.13076C4.26639 9.58625 4.77488 9.90345 5.34375 10.0295C4.9768 10.1282 4.59241 10.1436 4.21875 10.0745C4.38344 10.5714 4.69782 11.0052 5.11878 11.3164C5.53973 11.6276 6.04664 11.8009 6.57 11.8126C5.67518 12.5329 4.56305 12.9294 3.41438 12.9376C3.21297 12.9318 3.01205 12.9149 2.8125 12.887C3.97516 13.6277 5.32643 14.0183 6.705 14.012" fill="#00AAEC"/>
</svg>
