<svg width="7" height="12" viewBox="0 0 7 12" fill="none" xmlns="http://www.w3.org/2000/svg">
<path d="M1.33337 11.8331C1.13866 11.8335 0.949962 11.7657 0.800035 11.6415C0.629612 11.5002 0.522412 11.2969 0.502088 11.0764C0.481763 10.856 0.549986 10.6365 0.691702 10.4665L4.42503 5.99979L0.825035 1.52479C0.685226 1.35263 0.619811 1.13184 0.643272 0.911306C0.666733 0.690771 0.777135 0.488686 0.950035 0.349791C1.12434 0.196425 1.35472 0.122728 1.58568 0.146457C1.81664 0.170185 2.02722 0.289187 2.1667 0.474791L6.1917 5.47479C6.44447 5.78229 6.44447 6.22562 6.1917 6.53312L2.02503 11.5331C1.85548 11.7377 1.59856 11.8491 1.33337 11.8331Z" fill="#212B36"/>
</svg>
