<svg width="18" height="17" viewBox="0 0 18 17" fill="none" xmlns="http://www.w3.org/2000/svg">
<path d="M13.6334 16.4998C13.5001 16.5004 13.3687 16.4689 13.25 16.4082L9.00005 14.1832L4.75005 16.4082C4.61204 16.4807 4.45644 16.5131 4.30094 16.5017C4.14544 16.4902 3.99628 16.4354 3.8704 16.3433C3.74453 16.2513 3.647 16.1258 3.58889 15.9811C3.53079 15.8365 3.51444 15.6784 3.54171 15.5248L4.37505 10.8332L0.941713 7.49984C0.834594 7.39295 0.758606 7.2589 0.721903 7.11209C0.6852 6.96528 0.689167 6.81124 0.73338 6.66651C0.78168 6.51841 0.870527 6.38681 0.989838 6.28664C1.10915 6.18648 1.25415 6.12177 1.40838 6.09985L6.15838 5.40818L8.25005 1.13318C8.31828 0.992285 8.42483 0.873463 8.55747 0.790322C8.69012 0.707182 8.8435 0.663086 9.00005 0.663086C9.15659 0.663086 9.30997 0.707182 9.44262 0.790322C9.57526 0.873463 9.68181 0.992285 9.75005 1.13318L11.8667 5.39984L16.6167 6.09151C16.7709 6.11343 16.9159 6.17815 17.0353 6.27831C17.1546 6.37847 17.2434 6.51007 17.2917 6.65818C17.3359 6.80291 17.3399 6.95694 17.3032 7.10376C17.2665 7.25057 17.1905 7.38462 17.0834 7.49151L13.65 10.8248L14.4834 15.5165C14.5131 15.6727 14.4976 15.8342 14.4385 15.9819C14.3794 16.1296 14.2793 16.2572 14.15 16.3498C13.9991 16.4556 13.8174 16.5083 13.6334 16.4998Z" fill="#FFC81A"/>
</svg>
