<svg width="90" height="18" viewBox="0 0 90 18" fill="none" xmlns="http://www.w3.org/2000/svg">
<path d="M13.1701 15.7502C13.0501 15.7506 12.9318 15.7223 12.8251 15.6677L9.00005 13.6652L5.17506 15.6677C4.92165 15.8009 4.6145 15.7783 4.38338 15.6093C4.15225 15.4403 4.03748 15.1545 4.08755 14.8727L4.83755 10.6502L1.74755 7.65015C1.5511 7.4541 1.47897 7.16559 1.56005 6.90015C1.64874 6.62822 1.88437 6.4304 2.16755 6.39015L6.44255 5.76765L8.32506 1.92015C8.45037 1.66141 8.71256 1.49707 9.00005 1.49707C9.28755 1.49707 9.54974 1.66141 9.67505 1.92015L11.5801 5.76015L15.8551 6.38265C16.1382 6.4229 16.3739 6.62072 16.4626 6.89265C16.5436 7.15809 16.4715 7.4466 16.2751 7.64265L13.1851 10.6427L13.9351 14.8652C13.9897 15.1523 13.8726 15.445 13.6351 15.6152C13.4992 15.7103 13.3357 15.7578 13.1701 15.7502Z" fill="#FFC81A"/>
<path d="M31.1701 15.7502C31.0501 15.7506 30.9318 15.7223 30.8251 15.6677L27.0001 13.6652L23.1751 15.6677C22.9217 15.8009 22.6145 15.7783 22.3834 15.6093C22.1523 15.4403 22.0375 15.1545 22.0876 14.8727L22.8376 10.6502L19.7476 7.65015C19.5511 7.4541 19.479 7.16559 19.5601 6.90015C19.6487 6.62822 19.8844 6.4304 20.1676 6.39015L24.4426 5.76765L26.3251 1.92015C26.4504 1.66141 26.7126 1.49707 27.0001 1.49707C27.2875 1.49707 27.5497 1.66141 27.6751 1.92015L29.5801 5.76015L33.8551 6.38265C34.1382 6.4229 34.3739 6.62072 34.4626 6.89265C34.5436 7.15809 34.4715 7.4466 34.2751 7.64265L31.1851 10.6427L31.9351 14.8652C31.9897 15.1523 31.8726 15.445 31.6351 15.6152C31.4992 15.7103 31.3357 15.7578 31.1701 15.7502Z" fill="#FFC81A"/>
<path d="M49.1701 15.7502C49.0501 15.7506 48.9318 15.7223 48.8251 15.6677L45.0001 13.6652L41.1751 15.6677C40.9217 15.8009 40.6145 15.7783 40.3834 15.6093C40.1523 15.4403 40.0375 15.1545 40.0876 14.8727L40.8376 10.6502L37.7476 7.65015C37.5511 7.4541 37.479 7.16559 37.5601 6.90015C37.6487 6.62822 37.8844 6.4304 38.1676 6.39015L42.4426 5.76765L44.3251 1.92015C44.4504 1.66141 44.7126 1.49707 45.0001 1.49707C45.2875 1.49707 45.5497 1.66141 45.6751 1.92015L47.5801 5.76015L51.8551 6.38265C52.1382 6.4229 52.3739 6.62072 52.4626 6.89265C52.5436 7.15809 52.4715 7.4466 52.2751 7.64265L49.1851 10.6427L49.9351 14.8652C49.9897 15.1523 49.8726 15.445 49.6351 15.6152C49.4992 15.7103 49.3357 15.7578 49.1701 15.7502Z" fill="#FFC81A"/>
<path d="M67.1701 15.7502C67.0501 15.7506 66.9318 15.7223 66.8251 15.6677L63.0001 13.6652L59.1751 15.6677C58.9217 15.8009 58.6145 15.7783 58.3834 15.6093C58.1523 15.4403 58.0375 15.1545 58.0876 14.8727L58.8376 10.6502L55.7476 7.65015C55.5511 7.4541 55.479 7.16559 55.5601 6.90015C55.6487 6.62822 55.8844 6.4304 56.1676 6.39015L60.4426 5.76765L62.3251 1.92015C62.4504 1.66141 62.7126 1.49707 63.0001 1.49707C63.2875 1.49707 63.5497 1.66141 63.6751 1.92015L65.5801 5.76015L69.8551 6.38265C70.1382 6.4229 70.3739 6.62072 70.4626 6.89265C70.5436 7.15809 70.4715 7.4466 70.2751 7.64265L67.1851 10.6427L67.9351 14.8652C67.9897 15.1523 67.8726 15.445 67.6351 15.6152C67.4992 15.7103 67.3357 15.7578 67.1701 15.7502Z" fill="#FFC81A"/>
<path d="M85.1701 15.7502C85.0501 15.7506 84.9318 15.7223 84.8251 15.6677L81.0001 13.6652L77.1751 15.6677C76.9217 15.8009 76.6145 15.7783 76.3834 15.6093C76.1523 15.4403 76.0375 15.1545 76.0876 14.8727L76.8376 10.6502L73.7476 7.65015C73.5511 7.4541 73.479 7.16559 73.5601 6.90015C73.6487 6.62822 73.8844 6.4304 74.1676 6.39015L78.4426 5.76765L80.3251 1.92015C80.4504 1.66141 80.7126 1.49707 81.0001 1.49707C81.2875 1.49707 81.5497 1.66141 81.6751 1.92015L83.5801 5.76015L87.8551 6.38265C88.1382 6.4229 88.3739 6.62072 88.4626 6.89265C88.5436 7.15809 88.4715 7.4466 88.2751 7.64265L85.1851 10.6427L85.9351 14.8652C85.9897 15.1523 85.8726 15.445 85.6351 15.6152C85.4992 15.7103 85.3357 15.7578 85.1701 15.7502Z" fill="#FFC81A"/>
</svg>
